<?xml version="1.0" encoding="utf-8"?>
<!-- Generator: Adobe Illustrator 22.1.0, SVG Export Plug-In . SVG Version: 6.00 Build 0)  -->
<svg version="1.1" id="Camada_1" xmlns="http://www.w3.org/2000/svg" xmlns:xlink="http://www.w3.org/1999/xlink" x="0px" y="0px"
	 viewBox="0 0 211.8 213.9" style="enable-background:new 0 0 211.8 213.9;" xml:space="preserve">
<style type="text/css">
	.st0{fill:#F5C504;}
</style>
<title>gold</title>
<path class="st0" d="M96.9,177.3c0,0-0.3-0.2-0.6-0.4c-0.1,2.9-0.3,5.5-0.4,8.3c-0.2-5.6-0.6-10.9-4.6-15.5c-1.6-1.8-2.6-4.2-3.7-6
	c0,0.1-0.2,0.9-0.6,2.6c-0.3-4.7,0-8.6-1-12.2c-1.4-5-9.9-9.8-15.8-9.8c-12.1-0.1-24.1-0.2-36.2-0.4c-4-0.1-7.5,0.5-9.7,4.5
	c-0.9,1.8-2.1,3.5-3.6,4.9c-3.3,2.8-5.2,5.9-4.9,10.6c0.2,3.5,0.5,7.4-2.6,10.4c-1.7,1.6-3.2,3.5-4.8,5.2c-0.6,0.6-1.7,1.1-1.8,1.8
	c-0.7,5.3-4.9,9.5-4.7,15.1c0,1.8-1.3,3.7-2.1,5.9c0.3,0.4,1.2,1,1.3,1.7c1.1,6.9,6.8,8.1,12,8.9c5,0.7,10,0.9,15.1,0.8
	c8.4,0,16.9-0.3,25.3-0.5c8.8-0.2,18.1-2.2,26.3,0c8.7,2.3,14.5-1,21.1-4.3c4.7-2.4,6-9,3.3-13.5C101,189.7,94.7,185.2,96.9,177.3z"
	/>
<path class="st0" d="M147.4,139.6c7-0.3,8.9-2.7,9.1-9.5c0.1-0.5,0.3-0.9,0.5-1.4c0.2,2.2,0.3,3.4,0.4,4.6l0.6-0.1v-10.4l-0.4-0.1
	l-0.3,1.2l0,0c-1.3-3-2.9-6.7-4.7-10.3c-0.3-0.5-1.6-0.5-2-0.6c-0.4-4.1-0.8-8-1.3-13.1c-0.4,2.4-0.6,3.6-0.8,4.8
	c-0.9-3.7-2.6-6.7-4.1-9.8c-1.9-3.9-3.7-7.8-5.3-11.7c-0.6-1.5-0.1-4.2-1.1-4.8c-3.7-2.3-7.7-4.6-11.9-5.7c-3.7-1-7.7-0.4-11.6-0.4
	c-9.5,0-19.1-0.4-28.6,0.3c-7.6,0.5-9.7,3.3-11.2,10.9c-0.1,0.5-0.3,1-0.7,1.4c-3.4,3.4-6.6,6.9-6.2,12.4c0,2.4-0.1,4.9-0.3,7.3
	h-0.3l-0.3-6.4c-0.8,2.5-0.3,5.8-1.7,7.3c-3.4,3.6-6.4,7-6.1,13.3c-0.7-1.8-0.9-2.4-0.9-2.4c-0.9,2.3-1.9,4.8-2.9,7.4
	c-2,5.3-0.1,9.2,4.4,13.5c4.2,4,8.4,3.7,13.2,2.2c0.8-0.2,1.6-0.3,2.4-0.2c11.4,0.6,22.8,1.3,34.2,1.8c1.8,0.1,3.6-1.1,5.4-1.1
	C125.6,139.6,136.6,140,147.4,139.6z"/>
<path class="st0" d="M128.4,152.6C128.3,152.5,128.3,152.5,128.4,152.6z"/>
<path class="st0" d="M128.4,152.6L128.4,152.6L128.4,152.6L128.4,152.6z"/>
<path class="st0" d="M207.4,188.9c-2.9-3.3-5-6.3-5.1-10.6c0-1.1,0-2.3-0.1-3.4c0-0.2-0.3-0.4-0.7-0.8l-0.6,2.2
	c-0.5-2.4-0.2-6.4-1.7-7.3c-4.2-2.5-2.8-6.3-3.7-10.5c-0.3,2.1-0.4,3.3-0.6,4.5h-0.6c-0.4-2.3-0.8-4.5-1.3-7.3
	c-0.4,1.2-0.6,1.9-1,3.1c-0.3-3.1,0.3-6.5-1.1-8c-3.6-4.1-7.9-8-14-7.7s-12,1.1-18,1.4c-4.6,0.2-9.2-0.1-13.8-0.2
	c-2.7-0.2-5.4-0.2-8.1,0.1c-5.8,0.9-8.3,3.6-8.3,8.9l-0.6-0.6c-1.7,2.9-3.5,6-5.3,9.2c-1.1,2-2.3,4-2.7,6.1c-0.5,2.9-0.1,6-0.1,9
	h-0.7l-0.5-6.9c-1.1,8.8-1.3,9.3-6.2,12.6c-1,8.6-2,16.5-2.9,24.7l1.7-1.5c0.7,5.4,3.1,7.4,8.3,7.3c8.1-0.1,16.3-0.2,24.4-0.5
	c5.3-0.2,10.9,0,15.9-1.5c5.4-1.7,11.2-1.4,16.5,0.7c3.1,1.2,7.7,2,10.2,0.5c5.2-3.1,10.6-1.9,15.9-2.7c2.7-0.5,5.2-1.6,7.4-3.2
	c0.8-0.6,0.5-2.8,0.9-4.2C213,197.2,210.4,192.3,207.4,188.9z"/>
<path class="st0" d="M39.8,49.8c4.6,4.8,9.7,9.3,14.4,14c2.3,2.3,4.3,4.8,6.4,7.2l-0.8,0.6l9.3,2c0-4.2,0.7-7.7-0.2-10.7
	c-0.7-2.3-3.6-3.8-5.4-5.7c-2.2-2.5-4-5.2-6.3-7.6c-2.9-3-6.1-5.7-9.1-8.6c-2-1.9-5.5-4.1-5.3-5.9c0.4-4.1-2.9-4.2-4.4-4.6
	c-1.9-0.5-5.6,0.4-6.3,1.8c-1.1,2.5-1.1,5.3-0.1,7.7C34.2,43.5,36.8,46.8,39.8,49.8z"/>
<path class="st0" d="M113.8,30.3L113.8,30.3L113.8,30.3z"/>
<path class="st0" d="M110.9,52c0,0,0.1,0.7,0.3,1.4l1.1,0v-41h1.2c0,3,0,5.9,0,8.9s0.2,5.9,0.3,8.9c0.4-0.4,1.1-1,1.1-1.3
	c-2-8.2,1.3-16.7-1.8-25c-1.3-3.6-3.6-4.2-5.8-3.9c-1.6,0.2-3.7,2.9-4,4.7c-1,6.4-1.5,12.8-1.6,19.2c-0.2,9.6-2.1,19.5,2.4,29.1
	L110.9,52z"/>
<path class="st0" d="M148.6,57.9c-0.8,2.4-0.4,5.4-1.7,6.9c-1.7,2-2.1,3.8-0.3,4.8c2.3,1.3,5.1,3.5,7.9,1c2.3-2,4.2-4.4,6.3-6.6
	c0.8-1.1,1.7-2.1,2.7-3c2.3-1.6,4.9-2.9,4.4-6.4c0-0.1,0.2-0.3,0.4-0.5l0.3,1.3c1.2-1.2,2.4-2.6,3.7-3.9c2.1-2.1,4.3-4.1,6.5-6.2
	c1-1,2-2,3-3.1s2.7-2.3,3-3.7c0.5-2.1,0.1-4.4,0.1-6.6h-0.8c-0.1,1.2-0.3,2.5-0.6,4.9c-0.4-5.4-0.9-6.7-3.9-6.9
	c-1.6-0.1-4.6,1.5-4.8,2.6c-0.7,5.2-6.2,5.1-8.4,8.5c-0.6,0.7-1.2,1.4-1.9,2c-1.2,1.4-2.1,3.3-3.6,4c-2.3,1.1-4.6,1.7-5.1,4.9
	c-0.3,1.4-1.2,2.5-2.5,3.1c-3.9,1.3-4,4.3-4.3,7.5C148.9,60.9,148.7,59.3,148.6,57.9z"/>
<path class="st0" d="M180.7,67.2c-1.9,0.6-3.6,1.6-5,3.1c-2.9,2.9-6.2,4.6-10.4,4.3c-0.7,0-1.4,0.2-2.1,0.4c-6.6,1.2-8,7.5-6.8,11.9
	c1,3.6,3.2,4.4,6.5,2.6c2.9-1.5,6-2.8,8.9-4.2l0.6,1.3c1.8-1,3.7-1.9,5.5-2.9c5.3-3.1,7.7-8.1,6.1-13.6
	C183.6,68.9,181.6,67,180.7,67.2z"/>
<path class="st0" d="M133.4,60.3c2.5,0.3,5.7-2.7,6.2-6c0.3,0.5,0.5,0.8,0.8,1.1c0.1,0.1,0,0.3,0.1,0.4s0.2,0.1,0.7,0.3
	c-0.2-3.2-0.1-6.3,0.1-9.5c0.2-1.5,1.5-3.8,2.7-4.1c3.7-0.8,4.1-3.2,4.1-6.2c0-0.2,0.2-0.4,0.4-0.8c0.3,1.5,0.5,2.5,0.9,4.4
	c0.5-6.3-0.7-9.6-4.2-10c-3-0.3-7,0-7.7,4.6c-0.1,0.9-1.2,1.6-1.9,2.3c-4.4,4.6-8.6,9.2-7.8,16.4C128.1,56.9,130.1,59.9,133.4,60.3z
	"/>
<path class="st0" d="M44.4,86.1c2.9-0.2,6,1.9,9,3c0.6,0.2,1.3,1.3,1.6,1.1c0.9-0.5,2-1.1,2.3-2c1.9-6.5-1.3-12.9-8.1-13.7
	c-4.3-0.5-6.6-2.7-9.3-5.2c-1.2-1.1-3.1-2.1-4.5-1.9s-2.1,2.3-2.7,3.2c0-0.1-0.2-0.7-0.3-1.4l-0.9,0.1c0.2,3.4-0.9,7.7,0.8,10
	C34.9,83.1,38.6,86.4,44.4,86.1z"/>
<path class="st0" d="M74.3,47.4c-0.2,4.8-0.1,9.2,5.2,11.8c1.9,0.9,5.6,1.3,6.6-0.3C87.7,56,86,45.7,83.9,43
	c-2.4-3.1-5.3-6.3-6.1-9.9c-0.8-3.2-2.8-2.8-4.2-2.7c-2,0.1-5,0.9-5.6,2.3C65.8,38.3,68.8,44.9,74.3,47.4z"/>
<path class="st0" d="M113.8,30.3L113.8,30.3z"/>
<path class="st0" d="M113.8,30.3v14.1C115.1,39.8,115.1,34.9,113.8,30.3z"/>
</svg>
